# xmcd CD database file
#
# Track frame offsets:
#	150
#	17004
#	30963
#	47473
#	62797
#	78991
#	93334
#	110639
#	127240
#	142856
#	158363
#	175145
#	192014
#
# Disc length: 2755 seconds
#
# Revision: 1
# Processed by: cddbd v1.5.2PL0 Copyright (c) Steve Scherf et al.
# Submitted via: CDex 1.51
#
DISCID=980ac10d
DTITLE=Sarah Darling - Every Monday Morning
DYEAR=2009
DGENRE=Country
TTITLE0=Whenever It Rains
TTITLE1=I Never Do What I Should
TTITLE2=Can't Call Love
TTITLE3=Stop The Bleeding
TTITLE4=Don't Love Me
TTITLE5=Blue Guitar
TTITLE6=Wrapped In Moonlight
TTITLE7=Jack Of Hearts
TTITLE8=All You've Got
TTITLE9=Till The Truth Walks In
TTITLE10=Knowing What I Know About Heaven
TTITLE11=It Don't Matter Now (Missing You)
TTITLE12=I'll Wait For You
EXTD=YEAR: 2009
EXTT0=
EXTT1=
EXTT2=
EXTT3=
EXTT4=
EXTT5=
EXTT6=
EXTT7=
EXTT8=
EXTT9=
EXTT10=
EXTT11=
EXTT12=
PLAYORDER=
